<svg id="visual" viewBox="0 0 900 900" width="900" height="900" xmlns="http://www.w3.org/2000/svg" xmlns:xlink="http://www.w3.org/1999/xlink" version="1.1"><path d="M309 0L291 21.5C273 43 237 86 247.7 128.8C258.3 171.7 315.7 214.3 326.3 257.2C337 300 301 343 301 385.8C301 428.7 337 471.3 365.5 514.2C394 557 415 600 398.3 642.8C381.7 685.7 327.3 728.3 332.2 771.2C337 814 401 857 433 878.5L465 900L0 900L0 878.5C0 857 0 814 0 771.2C0 728.3 0 685.7 0 642.8C0 600 0 557 0 514.2C0 471.3 0 428.7 0 385.8C0 343 0 300 0 257.2C0 214.3 0 171.7 0 128.8C0 86 0 43 0 21.5L0 0Z" fill="#1DB954" stroke-linecap="round" stroke-linejoin="miter"></path></svg>